<svg width="63" height="53" viewBox="0 0 63 53" fill="none" xmlns="http://www.w3.org/2000/svg">
<path d="M45.5 44.27C46.6666 44.9367 48.0002 46.27 51 46.27C49.4995 50.2699 39.4997 55.2697 31.5 51.27L33 49.77C28.5053 49.2706 20.02 48.7712 20 48.77C25.9938 47.2716 45.46 44.2762 45.5 44.27ZM30.5 24.77L25.5 33.77C25.5 33.77 19.5 33.2699 16 31.27C11.8958 33.2262 8.41931 34.4514 1 36.77L22 23.77L14 25.77L13 22.27L16 17.27L24.5 16.77L30.5 24.77ZM50.5 17.27C50.5002 17.27 53.5001 17.2701 57.5 20.77C58.9999 24.2701 59.5 30.27 59.5 30.27L57.5 34.77C57.4826 34.7722 53.628 35.2574 51.5 34.27C50.6158 33.8597 46.5316 25.336 46.5 25.27C47.9927 22.7822 50.4758 17.3232 50.5 17.27ZM23 2.77003C23 2.77003 31 -2.72996 41.5 1.77003C41.4853 1.80676 40.4963 4.27624 40 5.26905C39.9823 5.26709 35.4881 4.77207 29.5 6.26905C29.4675 6.25464 24.9891 4.27366 22 5.27003L23 2.77003Z" fill="#00A63E"/>
<path d="M33 26.7696C33.5 26.4403 37.5 26.2696 44 26.7696C44.5 26.7696 46 29.7696 49.5 35.2696C47 38.7696 45 42.7696 45 42.7696C45 42.7696 40.5 43.2696 34.5 43.7696C34.5 43.7696 34 42.7696 33 41.7696C36.5 39.2696 38 38.2696 38 38.2696L0 45.7696C0 45.7696 12.5 41.2696 28.5 35.2696C29.5 32.7696 31.5 29.2696 33 26.7696ZM51 36.2696C51 36.2696 56.5 36.2696 57 36.7696C57.5 37.2696 58 39.4696 58 40.2696C58 41.2696 54.9288 44.7944 52 44.7696C49.0712 44.7448 48.5 43.7696 47.5 42.7696C50 38.7696 51 36.2696 51 36.2696ZM59.5 32.2696C60 33.2696 60.2415 34.3037 60 35.2696C59.5 37.2696 58.5 39.7696 58.5 39.7696L58 36.2696C58 36.2696 59.5 33.7696 59.5 32.2696ZM61 17.2696C62.5 19.2696 62.9792 25.3998 63 26.2696C63 28.7696 61.5 33.7696 61.5 33.7696C61.5 33.7696 61.5 31.7696 61.5 29.2696C61.2491 31.245 60.5 34.2696 60.5 34.2696C60.5 34.2696 60.5 32.2696 60 30.7696C60 26.2696 59.5 23.2696 58.5 20.7696C59.4982 19.7714 59.5 18.275 59.5 18.2696C59.5014 18.2736 59.8052 19.1851 60 19.7696C60.4991 18.7713 60.9983 17.2748 61 17.2696ZM30.5 7.76956C30.5 7.76956 37 6.76956 41 7.26956C44.5 9.76956 48.5 15.2696 48.5 15.2696L44 23.7696H32.5C32.5 23.7696 36.5 22.2696 42 20.7696C42.5 19.2696 44 15.2696 44 15.2696L40 9.76956C40 9.76956 36.5 9.76956 31.5 10.2696L27.5 14.2696L30.5 7.76956ZM44.5 2.26956C44.5 2.26956 54 4.26956 58.5 15.2696C58.5 15.2696 58 17.7696 57.5 18.2696C53 14.7696 51.5 15.2696 50 14.2696C49.5 12.7696 45 8.26956 43 6.26956C43.5 4.76956 44.5 2.26956 44.5 2.26956ZM20.5 6.26956C22.5 5.76956 25 6.26956 27.5 7.76956C27.1667 9.43623 26 13.0696 24 14.2696C23 14.7696 17.2 15.2696 16 15.2696C14.8 15.2696 12.5 12.7696 12.5 12.2696C12.5 10.7696 18.9661 6.65304 20.5 6.26956Z" fill="#14522B"/>
</svg>
